<?xml version="1.0" encoding="UTF-8" standalone="no"?>
<svg
   width="800"
   height="800"
   viewBox="0 0 24 24"
   version="1.1"
   id="svg380"
   sodipodi:docname="web2mcp.svg"
   inkscape:version="1.2.2 (b0a8486541, 2022-12-01)"
   xmlns:inkscape="http://www.inkscape.org/namespaces/inkscape"
   xmlns:sodipodi="http://sodipodi.sourceforge.net/DTD/sodipodi-0.dtd"
   xmlns="http://www.w3.org/2000/svg"
   xmlns:svg="http://www.w3.org/2000/svg">
  <defs
     id="defs384" />
  <sodipodi:namedview
     id="namedview382"
     pagecolor="#ffffff"
     bordercolor="#666666"
     borderopacity="1.0"
     inkscape:showpageshadow="2"
     inkscape:pageopacity="0.0"
     inkscape:pagecheckerboard="0"
     inkscape:deskcolor="#d1d1d1"
     showgrid="false"
     inkscape:zoom="0.641875"
     inkscape:cx="116.06621"
     inkscape:cy="444.79065"
     inkscape:window-width="1434"
     inkscape:window-height="1229"
     inkscape:window-x="1835"
     inkscape:window-y="91"
     inkscape:window-maximized="0"
     inkscape:current-layer="svg380" />
  <rect
     x="2"
     y="3"
     width="20"
     height="18"
     rx="2"
     fill="#000000"
     stroke="#c813c4"
     stroke-width="1.5"
     id="rect370" />
  <path
     id="path636"
     style="fill:#c813c4;stroke:none;stroke-width:0.414"
     d="m 12.055255,7.9000355 a 3.0900636,3.0570147 0 0 0 -3.0900578,3.0570115 3.0900636,3.0570147 0 0 0 0.5054297,1.674961 c 0.1030792,-0.0038 0.2138155,-0.006 0.3293555,-0.006 h 4.7419336 c 0.0344,0 0.0684,1.67e-4 0.101894,5.28e-4 a 3.0900636,3.0570147 0 0 0 0.501563,-1.669512 3.0900636,3.0570147 0 0 0 -3.090118,-3.0570115 z" />
  <path
     d="m 15.152495,14.641097 v -1.018496 a 0.68470345,0.68470345 0 0 0 -0.684704,-0.684704 h -2.05411 v -0.449166 c 0.104417,-0.0938 0.171176,-0.228691 0.171176,-0.38001 a 0.5135276,0.5135276 0 0 0 -1.027055,0 c 0,0.151319 0.06676,0.286206 0.171176,0.38001 v 0.449166 H 9.6748684 a 0.68470345,0.68470345 0 0 0 -0.6847038,0.684704 v 1.026369 l -0.02465,0.0017 a 0.34200938,0.34200938 0 0 0 -0.317702,0.341328 v 0.684704 a 0.34235173,0.34235173 0 0 0 0.342352,0.342351 v 1.71176 a 0.68470345,0.68470345 0 0 0 0.6847028,0.684703 h 4.7929236 a 0.68470345,0.68470345 0 0 0 0.684703,-0.684703 v -1.71176 a 0.34235173,0.34235173 0 0 0 0.342353,-0.342351 v -0.663478 a 0.34372113,0.34372113 0 0 0 -0.02465,-0.15577 c -0.06916,-0.167068 -0.217393,-0.207123 -0.317703,-0.216366 z m -4.792924,0.35091 c 0,-0.377956 0.23006,-0.684703 0.513527,-0.684703 0.283467,0 0.513528,0.306747 0.513528,0.684703 0,0.377956 -0.230061,0.684704 -0.513528,0.684704 -0.283467,0 -0.513527,-0.306748 -0.513527,-0.684704 z m 3.080481,2.054111 c -0.342695,-0.001 -2.737787,0 -2.738129,0 v -0.684704 c 0,0 2.396804,-6.84e-4 2.739498,0 z m -0.170491,-1.369407 c -0.283467,0 -0.513528,-0.306748 -0.513528,-0.684704 0,-0.377956 0.230061,-0.684703 0.513528,-0.684703 0.283467,0 0.513527,0.306747 0.513527,0.684703 0,0.377956 -0.23006,0.684704 -0.513527,0.684704 z"
     id="path2039"
     style="fill:#c813c4;fill-opacity:1;stroke-width:0.999998" />
  <g
     id="g2371"
     transform="translate(-0.42064265,0.79454722)">
    <rect
       style="fill:#c813c4;fill-opacity:1;stroke:none;stroke-width:0.414;stroke-opacity:1"
       id="rect2265"
       width="1.2558547"
       height="4.8251257"
       x="-1.9076377"
       y="7.8593512"
       rx="0.39658573"
       ry="0.70237625"
       transform="rotate(-55.855358)" />
    <rect
       style="fill:#c813c4;fill-opacity:1;stroke:none;stroke-width:0.414044;stroke-opacity:1"
       id="rect2265-3"
       width="1.256308"
       height="4.8243995"
       x="-10.035734"
       y="4.5282907"
       rx="0.39658579"
       ry="0.70208073"
       transform="matrix(0.01758741,-0.99984533,0.99999574,-0.00291971,0,0)" />
    <rect
       style="fill:#c813c4;fill-opacity:1;stroke:none;stroke-width:0.414044;stroke-opacity:1"
       id="rect2265-3-6"
       width="1.256308"
       height="4.8243995"
       x="-13.586707"
       y="1.1801604"
       rx="0.39658579"
       ry="0.70208073"
       transform="matrix(-0.26331392,-0.9647102,0.95910767,-0.28304147,0,0)" />
  </g>
  <g
     id="g2371-7"
     transform="matrix(-1,0,0,1,24.524275,0.83192756)">
    <rect
       style="fill:#c813c4;fill-opacity:1;stroke:none;stroke-width:0.414;stroke-opacity:1"
       id="rect2265-5"
       width="1.2558547"
       height="4.8251257"
       x="-1.9076377"
       y="7.8593512"
       rx="0.39658573"
       ry="0.70237625"
       transform="rotate(-55.855358)" />
    <rect
       style="fill:#c813c4;fill-opacity:1;stroke:none;stroke-width:0.414044;stroke-opacity:1"
       id="rect2265-3-3"
       width="1.256308"
       height="4.8243995"
       x="-10.035734"
       y="4.5282907"
       rx="0.39658579"
       ry="0.70208073"
       transform="matrix(0.01758741,-0.99984533,0.99999574,-0.00291971,0,0)" />
    <rect
       style="fill:#c813c4;fill-opacity:1;stroke:none;stroke-width:0.414044;stroke-opacity:1"
       id="rect2265-3-6-5"
       width="1.256308"
       height="4.8243995"
       x="-13.586707"
       y="1.1801604"
       rx="0.39658579"
       ry="0.70208073"
       transform="matrix(-0.26331392,-0.9647102,0.95910767,-0.28304147,0,0)" />
  </g>
</svg>
