<?xml version="1.0" encoding="UTF-8" standalone="no"?>
<!-- Uploaded to: SVG Repo, www.svgrepo.com, Generator: SVG Repo Mixer Tools -->

<svg
   fill="#000000"
   width="800px"
   height="800px"
   viewBox="0 0 24 24"
   version="1.1"
   id="svg2041"
   sodipodi:docname="database2mcp.svg"
   inkscape:version="1.2.2 (b0a8486541, 2022-12-01)"
   xmlns:inkscape="http://www.inkscape.org/namespaces/inkscape"
   xmlns:sodipodi="http://sodipodi.sourceforge.net/DTD/sodipodi-0.dtd"
   xmlns="http://www.w3.org/2000/svg"
   xmlns:svg="http://www.w3.org/2000/svg">
  <defs
     id="defs2045" />
  <sodipodi:namedview
     id="namedview2043"
     pagecolor="#ffffff"
     bordercolor="#666666"
     borderopacity="1.0"
     inkscape:showpageshadow="2"
     inkscape:pageopacity="0.0"
     inkscape:pagecheckerboard="0"
     inkscape:deskcolor="#d1d1d1"
     showgrid="false"
     inkscape:zoom="0.641875"
     inkscape:cx="0.77896787"
     inkscape:cy="332.61928"
     inkscape:window-width="1694"
     inkscape:window-height="1229"
     inkscape:window-x="1746"
     inkscape:window-y="112"
     inkscape:window-maximized="0"
     inkscape:current-layer="svg2041" />
  <rect
     x="2.0344107"
     y="4.1199999"
     width="20"
     height="16"
     rx="1"
     fill="#2F88FF"
     stroke="#000000"
     stroke-width="2"
     stroke-linejoin="round"
     id="rect4"
     style="fill:#000000;fill-opacity:1;stroke:#c813c4;stroke-opacity:1"
     ry="1" />
  <path
     d="M 12.112827,11.564649 V 10.546153 A 0.68470345,0.68470345 0 0 0 11.428123,9.8614497 H 9.374013 V 9.4122842 C 9.47843,9.3184802 9.545189,9.1835933 9.545189,9.0322738 a 0.5135276,0.5135276 0 0 0 -1.027055,0 c 0,0.1513195 0.06676,0.2862061 0.171176,0.3800104 V 9.8614497 H 6.6352 A 0.68470345,0.68470345 0 0 0 5.950496,10.546153 v 1.02637 l -0.02465,0.0017 A 0.34200938,0.34200938 0 0 0 5.608144,11.91555 v 0.684704 a 0.34235173,0.34235173 0 0 0 0.342352,0.342351 v 1.71176 a 0.68470345,0.68470345 0 0 0 0.684703,0.684703 h 4.792924 a 0.68470345,0.68470345 0 0 0 0.684703,-0.684703 v -1.71176 a 0.34235173,0.34235173 0 0 0 0.342353,-0.342351 v -0.663477 a 0.34372113,0.34372113 0 0 0 -0.02465,-0.15577 C 12.361369,11.613939 12.213136,11.573884 12.112826,11.56464 Z M 7.319903,11.91556 c 0,-0.377957 0.23006,-0.684704 0.513527,-0.684704 0.283467,0 0.513528,0.306747 0.513528,0.684704 0,0.377955 -0.230061,0.684703 -0.513528,0.684703 -0.283467,0 -0.513527,-0.306748 -0.513527,-0.684703 z m 3.080481,2.05411 c -0.342695,-0.001 -2.737787,0 -2.738129,0 v -0.684704 c 0,0 2.396804,-6.84e-4 2.739498,0 z m -0.170491,-1.369407 c -0.283467,0 -0.513528,-0.306748 -0.513528,-0.684703 0,-0.377957 0.230061,-0.684704 0.513528,-0.684704 0.283467,0 0.513527,0.306747 0.513527,0.684704 0,0.377955 -0.23006,0.684703 -0.513527,0.684703 z"
     id="path2039"
     style="fill:#c813c4;fill-opacity:1;stroke-width:0.999998" />
  <path
     style="fill:none;fill-rule:evenodd;stroke:#c813c4;stroke-width:0.414;stroke-linecap:butt;stroke-linejoin:miter;stroke-dasharray:none;stroke-opacity:1"
     d="M 13.358764,11.093059 18.15064,7.7506704"
     id="path418"
     sodipodi:nodetypes="cc" />
  <path
     style="fill:none;fill-rule:evenodd;stroke:#c813c4;stroke-width:0.414;stroke-linecap:butt;stroke-linejoin:miter;stroke-dasharray:none;stroke-opacity:1"
     d="m 13.590207,11.871936 5.122364,-1.39251"
     id="path418-6"
     sodipodi:nodetypes="cc" />
  <path
     style="fill:none;fill-rule:evenodd;stroke:#c813c4;stroke-width:0.414;stroke-linecap:butt;stroke-linejoin:miter;stroke-dasharray:none;stroke-opacity:1"
     d="m 13.524109,13.255526 4.758827,2.74751"
     id="path418-3" />
  <path
     style="fill:none;fill-rule:evenodd;stroke:#c813c4;stroke-width:0.414;stroke-linecap:butt;stroke-linejoin:miter;stroke-dasharray:none;stroke-opacity:1"
     d="m 13.689353,12.462355 5.22151,0.764581"
     id="path418-3-7"
     sodipodi:nodetypes="cc" />
</svg>
